<svg width="30" height="33" viewBox="0 0 30 33" fill="none" xmlns="http://www.w3.org/2000/svg">
<path d="M19.689 31.7671C20.189 31.2271 20.6289 30.3211 21.2129 30.2121C23.5669 29.7741 24.057 28.1751 23.96 26.2121C23.886 24.7231 23.56 23.2481 23.406 21.7601C23.177 19.5231 23.551 17.5011 25.787 16.1381C23.448 14.5001 23.0479 12.2651 23.5249 9.67311C23.7938 8.20166 23.9294 6.70894 23.9299 5.21311C23.9673 4.83753 23.9299 4.45828 23.8199 4.09721C23.71 3.73614 23.5297 3.40038 23.2894 3.10932C23.0491 2.81827 22.7537 2.57765 22.4199 2.40135C22.0862 2.22505 21.7208 2.11654 21.345 2.0821C20.728 1.9641 20.2609 1.06712 19.4109 0.210124C24.3799 -0.633876 26.817 1.33313 26.735 5.46513C26.701 7.19213 26.414 8.91511 26.241 10.6391C25.941 13.6291 26.4119 14.3531 29.7579 15.4391C29.2789 16.1321 28.9809 17.0791 28.4579 17.2211C26.3579 17.7971 26.038 19.2691 26.184 21.0551C26.338 22.9391 26.69 24.8151 26.725 26.6991C26.807 30.8871 24.575 32.7671 19.689 31.7671Z" fill="#FF4900"/>
<path d="M9.677 0.123194C9.086 0.938194 8.72095 1.97418 8.22095 2.04418C5.51395 2.42418 5.23705 4.2852 5.34705 6.3832C5.42505 7.8732 5.72796 9.3502 5.86096 10.8392C6.04696 12.9142 5.651 14.7802 3.474 16.0322C6.63 17.9932 5.88195 20.9132 5.67395 23.6872C5.50134 24.8509 5.40123 26.0241 5.37402 27.2002C5.36447 27.9181 5.61268 28.6156 6.07361 29.1661C6.53454 29.7165 7.17757 30.0835 7.88599 30.2002C8.53399 30.3602 9.01799 31.1812 9.91199 32.0132C5.33799 32.9712 2.653 31.0892 2.526 27.3132C2.56358 25.3472 2.74534 23.3866 3.06995 21.4472C3.29495 19.4932 3.17001 17.8012 0.786011 17.2212C0.568861 17.1077 0.383297 16.942 0.246094 16.7389C0.108891 16.5359 0.024344 16.302 0 16.0582C0.0453279 15.8257 0.147479 15.6081 0.297363 15.4247C0.447248 15.2413 0.640214 15.0979 0.859009 15.0072C3.05901 14.4072 3.32395 12.8272 3.10095 10.9442C2.90095 9.22418 2.57294 7.51119 2.49194 5.78619C2.29394 1.56919 4.747 -0.550806 9.677 0.123194Z" fill="#FF4900"/>
</svg>
