<svg width="37" height="26" viewBox="0 0 37 26" fill="none" xmlns="http://www.w3.org/2000/svg">
<path d="M33.5836 12.8929C33.0836 12.4929 32.7356 12.2689 32.4506 11.9849C30.0693 9.61754 27.6946 7.24288 25.3266 4.86088C24.6586 4.18888 24.6006 3.46089 25.1266 2.93589C25.6526 2.41089 26.3796 2.47787 27.0526 3.14787C29.9499 6.03387 32.8416 8.92555 35.7276 11.8229C35.907 11.9403 36.0546 12.1003 36.1572 12.2886C36.2597 12.4769 36.3142 12.6877 36.3155 12.9021C36.3169 13.1166 36.2653 13.328 36.1651 13.5176C36.065 13.7072 35.9195 13.8691 35.7416 13.9889C32.8583 16.8889 29.9669 19.7809 27.0676 22.6649C26.3626 23.3649 25.6986 23.4309 25.1406 22.9019C24.5826 22.3729 24.6536 21.6299 25.3626 20.9179C27.7886 18.4799 30.222 16.0465 32.6626 13.6179C32.8736 13.4129 33.1296 13.2479 33.5836 12.8929Z" fill="#FF4900"/>
<path d="M2.86464 13.0169C3.28964 13.3809 3.70165 13.6899 4.06465 14.0489C6.37065 16.3389 8.67064 18.6363 10.9646 20.9409C11.6366 21.6159 11.7077 22.3469 11.1947 22.8719C10.6517 23.4279 9.96365 23.3819 9.27165 22.6929C6.35365 19.7896 3.44197 16.8792 0.536633 13.9619C0.36969 13.8408 0.233975 13.6817 0.140667 13.4978C0.0473601 13.3138 -0.000867488 13.1103 1.18113e-05 12.9041C0.00089111 12.6978 0.0508305 12.4948 0.145703 12.3116C0.240575 12.1285 0.377666 11.9706 0.545636 11.8509C3.4503 8.93356 6.36198 6.02324 9.28065 3.1199C9.38263 2.9689 9.5167 2.84228 9.67329 2.74911C9.82988 2.65595 10.0051 2.59854 10.1865 2.58096C10.3678 2.56339 10.5509 2.58609 10.7224 2.64746C10.894 2.70883 11.0499 2.80736 11.1789 2.93597C11.308 3.06459 11.4071 3.22013 11.469 3.39148C11.531 3.56283 11.5544 3.74576 11.5374 3.92718C11.5205 4.10861 11.4637 4.28406 11.371 4.44098C11.2784 4.5979 11.1523 4.7324 11.0016 4.8349C8.5383 7.3129 6.06962 9.78492 3.59562 12.2509C3.38562 12.4569 3.18864 12.6749 2.86464 13.0169Z" fill="#FF4900"/>
<path d="M23.2636 1.2819C23.2116 1.4719 23.1456 1.76189 23.0526 2.04289C20.5439 9.58289 18.0333 17.1225 15.5206 24.6619C15.2206 25.5759 14.6936 25.9779 14.0286 25.8389C13.1936 25.6649 12.8686 24.9299 13.2066 23.9049C14.0786 21.2609 14.9636 18.6209 15.8436 15.9799C17.4746 11.0799 19.0986 6.1799 20.7506 1.2899C20.8774 0.855443 21.1275 0.467081 21.4706 0.171886C21.6572 0.0585603 21.8715 -0.000915288 22.0898 1.06487e-05C22.3081 0.000936586 22.5218 0.0622307 22.7075 0.177135C22.8931 0.292039 23.0433 0.456061 23.1414 0.651042C23.2396 0.846023 23.2819 1.06437 23.2636 1.2819Z" fill="#FF4900"/>
</svg>
