<svg width="9" height="9" viewBox="0 0 9 9" fill="none" xmlns="http://www.w3.org/2000/svg">
<path d="M1.15519 0H7.8449C8.4802 0 9 0.470353 9 1.15509V7.84491C9 8.52965 8.4802 9 7.8449 9H1.15519C0.519704 9 0 8.52965 0 7.84491V1.15509C0 0.470353 0.519704 0 1.15519 0ZM6.55617 0.999938C6.33329 0.999938 6.15115 1.18217 6.15115 1.40514V2.37496C6.15115 2.59784 6.33329 2.78016 6.55617 2.78016H7.5734C7.79629 2.78016 7.97861 2.59784 7.97861 2.37496V1.40514C7.97861 1.18217 7.79629 0.999938 7.5734 0.999938H6.55617ZM7.98286 3.80607H7.19074C7.26568 4.05076 7.30625 4.30996 7.30625 4.57813C7.30625 6.07513 6.05357 7.28862 4.50859 7.28862C2.96371 7.28862 1.71121 6.07513 1.71121 4.57813C1.71121 4.30978 1.75169 4.05067 1.82672 3.80607H1.00013V7.60779C1.00013 7.80453 1.16111 7.96559 1.35794 7.96559H7.62524C7.82207 7.96559 7.98305 7.80462 7.98305 7.60779V3.80607H7.98286ZM4.5085 2.72906C3.51031 2.72906 2.701 3.51314 2.701 4.48046C2.701 5.44777 3.51031 6.23185 4.5085 6.23185C5.50679 6.23185 6.31619 5.44777 6.31619 4.48046C6.31619 3.51314 5.50688 2.72906 4.5085 2.72906Z" fill="white"/>
</svg>
