<svg width="31" height="27" viewBox="0 0 31 27" fill="none" xmlns="http://www.w3.org/2000/svg">
<path d="M30.578 0.946061V22.0887C30.4114 22.3914 30.1577 22.6371 29.8499 22.7941C29.5422 22.9511 29.1943 23.0121 28.8515 22.9693C25.9285 22.9356 23.0056 22.9555 20.0826 22.9555H19.367C19.569 23.5692 19.7701 24.0846 19.9048 24.6172C20.0584 25.2215 20.2553 25.6807 21.0374 25.5443C21.3948 25.4822 21.6313 25.7489 21.6416 26.1296C21.6512 26.2146 21.6419 26.3007 21.6142 26.3817C21.5866 26.4627 21.5413 26.5366 21.4817 26.598C21.4221 26.6594 21.3497 26.7068 21.2696 26.7369C21.1894 26.767 21.1037 26.7789 21.0184 26.7719C20.8595 26.7805 20.7007 26.777 20.541 26.777H11.7687C11.0539 26.777 10.3383 26.777 9.6235 26.777C9.19964 26.777 8.9329 26.5776 8.93981 26.1322C8.94757 25.7196 9.20568 25.5357 9.60192 25.5279C9.7601 25.5418 9.91935 25.5381 10.0767 25.5167C10.2079 25.483 10.3883 25.3984 10.4272 25.2923C10.6965 24.5516 10.9356 23.8006 11.2153 22.9615H10.4954C7.57242 22.9615 4.64946 22.9434 1.7265 22.9762C1.38365 23.019 1.03584 22.958 0.728047 22.801C0.420252 22.644 0.166635 22.3983 0 22.0957V0.946061C0.149143 0.632207 0.39316 0.37316 0.697553 0.20555C1.00195 0.0379407 1.35132 -0.0297532 1.69629 0.0120254C10.7587 0.0252618 19.8211 0.0252618 28.8834 0.0120254C29.228 -0.0280548 29.5764 0.0403777 29.8802 0.207816C30.184 0.375254 30.4279 0.633349 30.578 0.946061ZM29.2477 19.1002V1.33625H1.31904V19.1002H29.2477ZM29.2667 20.4494H1.32336V21.6485H29.2624L29.2667 20.4494ZM11.7298 25.4787H18.8456C18.5866 24.6871 18.3587 23.9499 18.0868 23.23C18.0387 23.1556 17.974 23.0935 17.8977 23.0485C17.8214 23.0036 17.7357 22.977 17.6474 22.971C16.0751 22.952 14.5029 22.952 12.9306 22.971C12.8425 22.9771 12.7571 23.0037 12.6811 23.0487C12.6051 23.0936 12.5407 23.1557 12.4929 23.23C12.2193 23.9465 11.9922 24.6871 11.729 25.4787H11.7298Z" fill="#FF4900"/>
<path d="M22.8338 10.2223L18.1567 7.52297L18.799 6.42578C20.6196 7.47377 22.4142 8.49757 24.1969 9.53951C24.2933 9.63217 24.3688 9.74435 24.4183 9.86855C24.4678 9.99276 24.4902 10.1261 24.484 10.2597C24.4778 10.3932 24.4431 10.5239 24.3823 10.643C24.3214 10.7621 24.2358 10.8668 24.1313 10.9501C22.3789 11.9678 20.6187 12.9718 18.7964 14.0189L18.1567 12.9269L22.8338 10.2223Z" fill="#FF4900"/>
<path d="M12.3332 6.42505L12.9677 7.52569L8.29324 10.2225L12.966 12.9227L12.3315 14.0191L10.605 13.0306C9.43446 12.359 8.26418 11.6868 7.09419 11.0141C6.95649 10.9365 6.84146 10.8243 6.76051 10.6886C6.67956 10.5529 6.6355 10.3983 6.63271 10.2403C6.62992 10.0823 6.66849 9.92632 6.74459 9.78781C6.8207 9.64931 6.93169 9.53311 7.06657 9.45074C8.80774 8.44937 10.5446 7.4549 12.3332 6.42505Z" fill="#FF4900"/>
<path d="M16.097 4.3584L17.3332 4.67002L14.4845 16.0753L13.2448 15.7835L16.097 4.3584Z" fill="#FF4900"/>
</svg>
