<svg width="10" height="19" viewBox="0 0 10 19" fill="none" xmlns="http://www.w3.org/2000/svg">
<path d="M5.34639 13.9009C2.78046 13.9009 0.692871 11.8133 0.692871 9.24767V4.80684C0.692871 2.24091 2.78046 0.15332 5.34639 0.15332C7.91231 0.15332 9.9999 2.24091 9.9999 4.80684V9.24767C9.99964 11.8133 7.91231 13.9009 5.34639 13.9009ZM5.34639 0.958337C3.22426 0.958337 1.49789 2.68471 1.49789 4.80684V9.24767C1.49789 11.3695 3.22426 13.0962 5.34639 13.0962C7.46852 13.0962 9.19489 11.3698 9.19489 9.24767V4.80684C9.19463 2.68471 7.46826 0.958337 5.34639 0.958337Z" fill="#FF4900"/>
<path d="M5.34673 5.15579C5.11042 5.15579 4.91695 4.96233 4.91695 4.72602V3.48837C4.91695 3.25206 5.11042 3.05859 5.34673 3.05859C5.58304 3.05859 5.7765 3.25206 5.7765 3.48837V4.72602C5.7765 4.96233 5.58304 5.15579 5.34673 5.15579Z" fill="#FF4900"/>
<path d="M5.33155 18.6369C5.22846 18.6369 5.12563 18.5977 5.04694 18.519L3.73009 17.2022C3.57298 17.0451 3.57298 16.7901 3.73009 16.633C3.8872 16.4759 4.14221 16.4759 4.29931 16.633L5.33155 17.6652L6.35938 16.6374C6.51649 16.4803 6.7715 16.4803 6.9286 16.6374C7.08571 16.7945 7.08571 17.0495 6.9286 17.2066L5.61617 18.519C5.53774 18.5975 5.43465 18.6369 5.33155 18.6369Z" fill="#FF4900"/>
</svg>
