<svg width="10" height="7" viewBox="0 0 10 7" fill="none" xmlns="http://www.w3.org/2000/svg">
<path d="M9.98832 0.833786C9.97398 0.819263 9.95032 0.814334 9.93015 0.822256C9.63118 0.936238 9.31665 1.01818 8.9927 1.06659C9.33662 0.84426 9.59288 0.536376 9.72428 0.18334C9.73063 0.16644 9.72408 0.147957 9.708 0.136955C9.69182 0.125952 9.66939 0.124544 9.65167 0.13361C9.26432 0.331032 8.8448 0.470187 8.40419 0.547378C8.01377 0.199183 7.46859 0 6.90436 0C5.75685 0 4.82339 0.802188 4.82339 1.78824C4.82339 1.90751 4.83681 2.02563 4.86344 2.14031C3.27409 2.05599 1.78798 1.40026 0.777501 0.335169C0.767157 0.324255 0.751486 0.318182 0.735099 0.31959C0.718814 0.320646 0.704271 0.328568 0.696077 0.340626C0.511722 0.612423 0.41432 0.923387 0.41432 1.23972C0.41432 1.78798 0.704168 2.30059 1.19773 2.63884C0.943626 2.61261 0.695463 2.54387 0.471675 2.43711C0.45662 2.4298 0.437877 2.42989 0.422821 2.43737C0.407765 2.44476 0.39824 2.45849 0.397831 2.47346L0.397626 2.49634C0.397626 3.28374 1.00139 3.97512 1.86039 4.20466C1.63414 4.236 1.39939 4.23389 1.16864 4.19604C1.15164 4.19331 1.13382 4.19833 1.12214 4.20959C1.11057 4.22086 1.10668 4.23662 1.112 4.25087C1.36959 4.94181 2.0853 5.42634 2.91838 5.48672C2.22346 5.92425 1.40206 6.15477 0.534152 6.15477C0.374274 6.15477 0.21327 6.14659 0.0555437 6.13066C0.0330113 6.12845 0.0106838 6.13999 0.00289989 6.15856C-0.00488401 6.1773 0.00341199 6.19825 0.0228718 6.2089C0.962062 6.72653 2.04802 7 3.16347 7C6.81218 7 8.99249 4.45296 8.99249 1.99059C8.99249 1.92203 8.99096 1.85382 8.98778 1.78578C9.38138 1.53836 9.71926 1.2355 9.9917 0.884924C10.0039 0.869257 10.0026 0.848397 9.98832 0.833786Z" fill="white"/>
</svg>
