<svg width="32" height="27" viewBox="0 0 32 27" fill="none" xmlns="http://www.w3.org/2000/svg">
<path d="M17.4182 14.6791C16.1423 18.3809 14.9465 21.7949 13.7957 25.2227C13.4783 26.169 13.0408 26.9403 11.9431 26.9403C10.87 26.9403 10.3629 26.2042 10.0235 25.2652C7.72846 18.9306 5.4097 12.6041 3.11792 6.26854C2.84801 5.52179 2.61572 4.92798 1.60152 4.99423C1.43189 5.01316 1.2602 4.99132 1.10071 4.93053C0.94122 4.86974 0.798548 4.77177 0.684554 4.64473C0.57056 4.5177 0.488537 4.36528 0.445307 4.20016C0.402076 4.03504 0.398881 3.862 0.435997 3.69541C0.500611 2.89059 1.06579 2.70164 1.76346 2.70328C4.22209 2.71064 6.68072 2.72536 9.13853 2.70982C9.89919 2.70491 10.6402 2.73436 10.7171 3.69131C10.794 4.64827 10.1503 4.98851 9.29312 5.04086C9.09482 5.06627 8.89798 5.10205 8.70341 5.14801L13.3867 19.0909C14.3355 16.2568 15.2082 13.754 15.9836 11.2218C16.0127 10.7276 15.9061 10.2349 15.6753 9.79699C15.326 8.77461 14.9015 7.77675 14.5654 6.75028C14.2505 5.79006 14.0386 4.85683 12.6539 4.92881C12.3603 4.94353 11.764 4.12644 11.7869 3.71994C11.8725 3.47666 12.0193 3.25949 12.2131 3.08932C12.4069 2.91915 12.6412 2.80169 12.8935 2.74825C15.5158 2.65938 18.1399 2.65938 20.7659 2.74825C21.1896 2.76216 21.9666 3.4026 21.929 3.6537C21.746 4.18746 21.4069 4.65392 20.9557 4.99261C20.7921 5.14883 20.4036 5.06868 19.9742 5.10957L24.5046 18.605C25.3511 15.5264 27.2715 12.7014 26.4839 9.36268C26.1884 8.41777 25.805 7.50262 25.3388 6.62922C24.9009 5.83284 24.5201 5.00631 24.1995 4.15588C23.9482 3.39719 23.9922 2.57163 24.3226 1.84393C24.6531 1.11624 25.2459 0.539921 25.9825 0.229934C26.7488 -0.0766172 27.6037 -0.0766473 28.3701 0.229859C29.1364 0.536366 29.7555 1.12592 30.099 1.87638C30.9884 3.50681 31.2638 5.40201 30.8752 7.21812C30.3809 9.44608 29.7663 11.6457 29.0341 13.8072C27.7549 17.6759 26.3563 21.5053 25.0395 25.3626C24.7262 26.2786 24.2453 26.9616 23.2188 26.9501C22.7769 26.936 22.3525 26.774 22.0137 26.49C21.6748 26.206 21.4411 25.8165 21.3499 25.3839C20.2433 22.2913 19.1088 19.2095 17.9818 16.1243C17.8427 15.7342 17.6857 15.3588 17.4182 14.6791ZM13.7851 3.86389C15.7407 4.34973 15.4291 6.41738 16.0621 7.82091C16.7484 9.34304 17.8034 10.9134 16.862 12.393C17.3405 12.6777 17.8591 12.802 17.9957 13.1013C18.479 14.1564 18.8348 15.2696 19.234 16.3631C20.2735 19.2135 21.2935 22.0721 22.3715 24.9078C22.5072 25.2653 22.944 25.5082 23.245 25.8075C23.533 25.5611 23.7796 25.27 23.9754 24.9454C24.4579 23.7186 24.8677 22.4705 25.3658 21.0628C24.3361 21.5233 24.1488 20.968 23.9369 20.3341C22.3011 15.4479 20.6473 10.5683 19.0025 5.68536C18.4905 4.16406 18.5756 4.04546 20.3823 3.86716L13.7851 3.86389ZM14.0304 21.1438C12.9164 21.6174 12.8428 20.905 12.64 20.3079C11.014 15.4651 9.36837 10.628 7.76118 5.78024C7.55628 5.30034 7.50707 4.76827 7.62049 4.25894C7.71864 4.00376 8.43841 3.98575 8.87517 3.86307H2.7196C3.18038 4.27614 3.57292 4.7595 3.88266 5.29523C4.58197 6.93104 5.12915 8.63964 5.74013 10.3172C7.50108 15.1567 9.25059 20.0004 11.0484 24.826C11.1931 25.2145 11.67 25.4804 11.9922 25.801C12.289 25.5014 12.5438 25.163 12.7496 24.795C13.1962 23.6785 13.5569 22.5302 14.0345 21.1438H14.0304ZM25.4337 20.0617L25.6194 20.1272C25.7348 19.9253 25.8373 19.7163 25.9261 19.5015C27.0278 16.3214 28.1688 13.1537 29.1928 9.9483C29.6211 8.77486 29.8349 7.534 29.8242 6.28489C29.7122 4.81451 29.3719 3.37052 28.8157 2.00478C28.6209 1.60018 28.2753 1.28801 27.853 1.13513C27.4308 0.982247 26.9654 1.00082 26.5567 1.18687C26.1209 1.28627 25.7385 1.54616 25.4857 1.91477C25.2329 2.28339 25.1282 2.73369 25.1924 3.17603C25.3176 4.11396 25.6452 5.01344 26.1526 5.81214C26.9809 6.99144 27.5127 8.35299 27.703 9.78144C27.8934 11.2099 27.7367 12.6632 27.2462 14.0182C26.6131 16.0237 26.0398 18.0472 25.4378 20.0617H25.4337Z" fill="white"/>
</svg>
